<svg width="548" height="114" viewBox="0 0 548 114" fill="none" xmlns="http://www.w3.org/2000/svg">
<g clip-path="url(#clip0_141_8386)">
<path d="M7.3974 80.1213L-0.000610352 92.5581L12.5738 99.8752L19.9718 87.4384L7.3974 80.1213Z" fill="#F1F2F2"/>
<path d="M83.4882 55.4698L73.6057 65.2441L83.4882 75.0185L93.3707 65.2441L83.4882 55.4698Z" fill="#F1F2F2"/>
<path d="M105.53 89.5558L93.0972 95.7295L99.3391 108.026L111.772 101.852L105.53 89.5558Z" fill="#F1F2F2"/>
<path d="M389.39 46.8643C362.794 54.7175 322.706 49.0032 254.666 30.2639C185.141 11.1096 162.676 34.5097 162.676 34.5097C202.151 13.5996 292.237 43.0334 357.404 56.8564C372.477 60.0488 389.39 46.8643 389.39 46.8643Z" fill="#F1F2F2"/>
<path d="M306.309 53.5999C279.293 54.7811 253.052 84.7256 228.037 100.273C172.36 131.59 149.443 99.3787 149.443 99.3787C197.858 120.8 255.408 74.1908 270.805 64.7413C293.14 51.046 306.309 53.568 306.309 53.568V53.5999Z" fill="#F1F2F2"/>
<path d="M433.61 24.6771C449.135 22.1232 467.34 5.68242 484.705 3.92661C484.705 3.92661 459.787 -1.05351 417.472 0.191519C356.468 1.97925 336.714 14.5572 336.714 14.5572C410.048 10.7264 418.085 27.231 433.61 24.6452V24.6771Z" fill="url(#paint0_linear_141_8386)"/>
<path d="M432.384 33.6479C456.172 22.283 475.893 10.152 498.874 3.63951C517.692 -1.69177 542.997 -0.0955842 547.968 20.6549C548.42 22.5065 543.513 10.5351 527.375 23.8473C527.375 23.8473 504.781 48.9394 452.331 54.3665C432.48 56.4415 412.178 57.7504 377.287 59.7616L432.351 33.616L432.384 33.6479ZM492.645 13.5997C492.645 13.5997 470.729 13.0251 447.618 43.8955C473.537 16.1856 505.814 17.7818 505.297 15.7706C499.972 13.6955 492.613 13.5997 492.613 13.5997H492.645Z" fill="#F1F2F2"/>
<path d="M42.0247 90.121L42.6703 70.3283L61.3264 77.5111L42.0247 90.121ZM36.5054 81.8208L55.1615 89.0037L55.8071 69.2109L36.5054 81.8208Z" fill="url(#paint1_linear_141_8386)" stroke="#5CE1E6"/>
<path d="M146.602 78.5006L126.591 77.8621L133.853 59.4102L146.602 78.5006ZM138.21 83.9596L145.473 65.5076L125.461 64.8691L138.21 83.9596Z" fill="url(#paint2_linear_141_8386)" stroke="#7DE7EB"/>
</g>
<defs>
<linearGradient id="paint0_linear_141_8386" x1="590" y1="63" x2="354" y2="-19" gradientUnits="userSpaceOnUse">
<stop stop-color="#5CE1E6"/>
<stop offset="1" stop-color="#9DEDF0" stop-opacity="0.93"/>
</linearGradient>
<linearGradient id="paint1_linear_141_8386" x1="48.9159" y1="69.2109" x2="48.9159" y2="90.121" gradientUnits="userSpaceOnUse">
<stop stop-color="#7DE7EB"/>
<stop offset="1" stop-color="#9DEDF0"/>
</linearGradient>
<linearGradient id="paint2_linear_141_8386" x1="136.032" y1="59.4102" x2="136.032" y2="83.9596" gradientUnits="userSpaceOnUse">
<stop stop-color="#7DE7EB"/>
<stop offset="1" stop-color="#9DEDF0"/>
</linearGradient>
<clipPath id="clip0_141_8386">
<rect width="548" height="114" fill="white"/>
</clipPath>
</defs>
</svg>
