<svg width="290" height="65" viewBox="0 0 290 65" fill="none" xmlns="http://www.w3.org/2000/svg">
<g clip-path="url(#clip0_158_5708)">
<path d="M43.8674 14.8856C43.8674 16.6627 42.6185 19.0431 40.1208 22.0213C37.8718 24.7089 36.5787 26.0526 36.2472 26.0526C37.2474 32.2943 37.7447 36.534 37.7447 38.7663C37.7447 42.9457 36.1809 46.4779 33.0587 49.3739C29.9366 52.2698 26.2453 53.7123 21.9958 53.7123C18.1222 53.7123 14.8287 52.4015 12.121 49.7743C9.41331 47.147 8.05946 43.911 8.05946 40.0662C8.05946 36.2214 9.4962 32.7276 12.3697 29.2119C11.6181 28.263 11.0158 26.9796 10.5572 25.367C8.43522 26.442 6.60061 28.0162 5.05888 30.0784C2.47275 33.5119 1.18521 37.6255 1.18521 42.4192C1.18521 47.8381 3.12481 52.4947 6.99848 56.4053C10.8721 60.3105 15.536 62.2686 20.9956 62.2686C25.7424 62.2686 30.3068 60.4696 34.6778 56.8715V57.3652C30.8041 61.0893 26.2397 62.9487 20.9956 62.9487C15.4145 62.9487 10.6014 60.9193 6.56193 56.8715C2.52249 52.8238 0.5 48.0082 0.5 42.4247C0.5 37.3403 1.91464 33.0183 4.74943 29.4642C5.99829 27.8955 7.89368 26.283 10.4356 24.6266C10.4356 20.2443 12.5631 16.4817 16.8125 13.3389C20.7249 10.443 25.0793 8.995 29.8703 8.995C34.0368 8.995 36.9711 10.0919 38.6786 12.2804C39.2201 11.7813 40.1982 11.5344 41.6128 11.5344C43.1104 11.7813 43.8619 12.9002 43.8619 14.8856H43.8674ZM34.3076 30.2046V27.2264C33.2245 27.9723 31.5557 28.9431 29.3066 30.1388C30.141 31.7129 30.5555 33.468 30.5555 35.4096C30.5555 37.3512 29.6161 39.0296 27.7428 40.5598C25.8695 42.0901 23.952 42.8525 21.9958 42.8525C20.6641 42.8525 19.5368 42.4301 18.6195 41.58C17.7022 40.7354 17.2435 39.7097 17.2435 38.5085C17.2435 37.3074 17.6303 36.2982 18.3985 35.47C19.1666 34.6418 20.0949 34.2304 21.178 34.2304C22.134 34.2304 23.0734 34.9983 23.9907 36.5231C21.6587 36.7315 20.4928 37.4774 20.4928 38.7554C20.4928 40.494 21.4322 41.3606 23.3055 41.3606C25.0572 41.3606 26.5547 40.6476 27.8036 39.2216C29.0524 37.7955 29.6768 36.194 29.6768 34.4169C29.6768 33.1335 29.3453 31.8336 28.6822 30.5117C25.9413 31.7952 23.3884 32.4369 21.0177 32.4369C17.0722 32.4369 14.3314 31.5484 12.7952 29.7713C10.0543 33.1609 8.70046 36.5944 8.74467 40.0662C8.78335 42.3808 9.57356 44.7392 11.1153 47.1361C13.193 50.3611 16.0168 51.9736 19.592 51.9736C24.0404 51.9736 27.7151 49.33 30.6273 44.0372C33.0808 39.5726 34.3076 34.9599 34.3076 30.2046ZM38.1205 12.5107C36.3301 10.4978 33.5781 9.48862 29.8703 9.48862C25.9137 9.48862 21.9958 10.7501 18.1222 13.2731C13.5798 16.2513 11.2479 19.97 11.1263 24.4346C11.9994 23.8094 12.9388 23.2609 13.939 22.8002C16.3152 21.6703 19.1279 20.8915 22.3771 20.4746C26.6652 19.9316 30.7931 19.6574 34.7496 19.6574C34.7496 18.3849 35.0425 17.0466 35.6227 15.648C36.2914 14.0465 37.1203 12.9989 38.1205 12.5052V12.5107ZM34.6833 20.343C30.7157 20.4253 26.7039 20.6776 22.6534 21.0889C19.476 21.418 16.6799 22.1639 14.2595 23.3212C13.5909 23.6942 12.5465 24.2756 11.1263 25.0599C11.585 26.6724 12.1707 27.89 12.8836 28.7182C15.3868 26.7327 18.1443 25.74 21.1504 25.74C22.9021 25.74 24.3443 26.0307 25.4716 26.6066C26.4331 27.1002 27.5825 28.0546 28.9198 29.4587C30.3842 28.8389 32.1967 27.7858 34.3684 26.294L34.6833 20.3375V20.343ZM28.1849 29.7932C26.3945 27.4622 24.0625 26.2994 21.189 26.2994C17.9785 26.2994 15.3758 27.2812 13.3754 29.2448C14.8342 30.9231 17.3762 31.7568 21.0012 31.7568C23.3331 31.7568 25.7258 31.1041 28.1849 29.7932ZM42.182 14.392C42.182 12.9879 41.6405 12.2859 40.5574 12.2859C40.3474 12.2859 40.0656 12.3901 39.7119 12.593C39.3583 12.8014 39.1372 12.9056 39.0543 12.9056C39.4301 13.5693 39.618 14.3317 39.618 15.1983C39.618 16.3556 39.2477 17.4525 38.5128 18.4836C37.7778 19.5148 36.9545 20.14 36.0538 20.343L36.1809 24.9941C40.1816 21.3138 42.182 17.7761 42.182 14.3865V14.392ZM38.4962 13.2731C36.8716 15.3025 36.0593 17.3867 36.0593 19.5367C36.7279 19.4544 37.3689 18.9499 37.9989 18.0174C38.6233 17.085 38.9383 16.1033 38.9383 15.0721C38.9383 14.4085 38.7946 13.8106 38.5017 13.2731H38.4962Z" fill="white"/>
<path d="M60.8651 39.5727C60.2407 40.527 58.279 43.1323 54.9911 47.3885C51.5761 51.7708 47.929 53.9647 44.0553 53.9647C43.138 53.9647 42.3588 53.5698 41.7123 52.7855C41.0658 52.0012 40.7453 51.0468 40.7453 49.9334C40.7453 48.82 41.1818 47.4323 42.0549 45.6553L46.9288 35.7937H42.3644L43.3646 34.8009H48.3655C50.4046 33.5285 52.2613 31.8995 53.9246 29.9304C54.9635 28.6964 56.4002 26.6835 58.2348 23.8862H58.92L52.6094 34.8009H57.2954L56.9196 35.7937H52.2337L45.7352 47.0813C44.8179 48.6554 44.3592 49.7469 44.3592 50.3667C44.3592 50.8603 44.536 51.3814 44.8897 51.9189C45.2434 52.4564 45.6081 52.7251 45.9838 52.7251C47.194 52.7251 48.7357 52.0012 50.609 50.5532C52.1066 49.3959 53.3554 48.1783 54.3611 46.8948C55.5271 45.4469 57.5275 42.8635 60.3623 39.1394L60.8596 39.5727H60.8651Z" fill="white"/>
<path d="M86.859 39.5726C84.5658 42.9238 82.2117 45.7978 79.7969 48.1947C75.879 52.0395 72.464 53.9647 69.5463 53.9647C67.4244 53.9647 66.1921 52.2479 65.8605 48.8145C64.0259 50.9206 62.755 52.2479 62.0477 52.7854C61.0033 53.5698 59.7378 53.9647 58.2348 53.9647C56.1128 53.9647 55.0463 52.95 55.0463 50.9261C55.0463 49.0668 55.7315 46.8729 57.1075 44.3499L61.7327 35.9143C62.0642 35.3329 62.6279 35.0477 63.4181 35.0477C63.4568 35.0477 63.7607 35.119 64.3243 35.2671C64.888 35.4152 65.2693 35.4865 65.4793 35.4865C65.6892 35.4865 66.0705 35.2068 66.6342 34.6473C67.1978 34.0879 67.5625 33.7917 67.7283 33.7478L60.2904 47.6407C59.5831 48.9626 59.2294 50.1198 59.2294 51.1126C59.2294 52.1876 59.7489 52.7251 60.7933 52.7251C61.5448 52.7251 62.8766 51.5239 64.794 49.1271C66.2916 47.2239 67.3968 45.6772 68.1041 44.476L72.9779 35.854C73.2708 35.3164 73.746 35.0477 74.4147 35.0477C74.6633 35.0477 75.0612 35.119 75.6027 35.2671C76.1443 35.4152 76.4979 35.4865 76.6637 35.4865C76.8295 35.4865 77.1832 35.2068 77.7247 34.6473C78.2662 34.0879 78.6641 33.7917 78.9128 33.7478L70.9775 48.5731C70.3089 49.8127 69.9774 50.7232 69.9774 51.2991C69.9774 52.1273 70.5189 52.5386 71.602 52.5386C73.4366 52.5386 76.1443 50.7012 79.7251 47.0209C82.267 44.4157 84.4718 41.7885 86.3507 39.1448L86.848 39.5781L86.859 39.5726Z" fill="white"/>
<path d="M110.974 39.5726C110.35 40.3186 107.139 43.8946 101.354 50.3008C99.1045 52.78 96.9991 54.0195 95.0429 54.0195C92.7497 54.0195 91.545 52.78 91.4179 50.3008C91.3737 49.1819 91.8158 47.9259 92.7276 46.5163L97.9164 38.6402C98.4966 37.7736 98.7895 37.1538 98.7895 36.7809C98.7895 36.4079 98.4745 36.2214 97.8501 36.2214C96.2642 36.2214 94.1864 37.6694 91.6003 40.5654C89.7657 42.6715 88.224 44.8051 86.9751 46.9551C86.4336 47.9479 85.6434 49.3958 84.599 51.2991C83.8474 52.7032 83.1622 53.4052 82.5378 53.4052C82.3278 53.4052 81.9244 53.3229 81.3221 53.1584C80.7198 52.9939 80.355 52.9116 80.228 52.9116C79.8964 52.9116 79.1228 53.5094 77.9181 54.7106L87.478 36.5396C88.0195 35.5468 88.6439 35.0532 89.3512 35.0532C89.6441 35.0532 90.0475 35.1355 90.5725 35.3C91.0919 35.4645 91.4179 35.5468 91.5395 35.5468C91.6224 35.5468 91.965 35.2781 92.5729 34.7405C93.1752 34.203 93.6062 33.874 93.8549 33.7478L90.6664 39.7043C94.6672 36.2324 97.7893 34.4937 100.038 34.4937C101.956 34.4937 102.912 35.4481 102.912 37.3458C102.912 38.3386 102.514 39.4574 101.724 40.697L95.9105 49.692C95.159 50.8493 94.7832 51.5514 94.7832 51.7982C94.7832 52.5441 95.2198 52.9171 96.0929 52.9171C97.303 52.9171 99.0271 51.6775 101.276 49.1984L110.46 39.1503L110.958 39.5836L110.974 39.5726Z" fill="white"/>
<path d="M135.095 39.5726C134.47 40.3186 131.26 43.8946 125.474 50.3008C123.225 52.78 121.12 54.0195 119.164 54.0195C116.87 54.0195 115.666 52.78 115.539 50.3008C115.494 49.1819 115.936 47.9259 116.848 46.5163L122.037 38.6402C122.617 37.7736 122.91 37.1538 122.91 36.7809C122.91 36.4079 122.601 36.2214 121.971 36.2214C120.385 36.2214 118.307 37.6694 115.721 40.5654C113.886 42.6715 112.345 44.8051 111.096 46.9551C110.554 47.9479 109.764 49.3958 108.72 51.2991C107.968 52.7032 107.283 53.4052 106.658 53.4052C106.448 53.4052 106.045 53.3229 105.437 53.1584C104.835 52.9939 104.47 52.9116 104.343 52.9116C104.012 52.9116 103.238 53.5094 102.033 54.7106L111.593 36.5396C112.135 35.5468 112.759 35.0532 113.466 35.0532C113.759 35.0532 114.163 35.1355 114.688 35.3C115.207 35.4645 115.533 35.5468 115.655 35.5468C115.738 35.5468 116.08 35.2781 116.688 34.7405C117.29 34.203 117.721 33.874 117.97 33.7478L114.782 39.7043C118.782 36.2324 121.904 34.4937 124.153 34.4937C126.071 34.4937 127.027 35.4481 127.027 37.3458C127.027 38.3386 126.629 39.4574 125.839 40.697L120.026 49.692C119.274 50.8493 118.898 51.5514 118.898 51.7982C118.898 52.5441 119.335 52.9171 120.208 52.9171C121.418 52.9171 123.142 51.6775 125.397 49.1984L134.581 39.1503L135.078 39.5836L135.095 39.5726Z" fill="white"/>
<path d="M154.342 39.5727C152.883 42.0134 150.446 44.8051 147.031 47.9479C142.616 51.9573 138.908 53.9647 135.907 53.9647C134.321 53.9647 133.023 53.4382 132 52.3851C130.978 51.332 130.47 50.0157 130.47 48.447C130.47 44.476 132.243 41.0645 135.78 38.2124C138.863 35.7333 141.842 34.4883 144.715 34.4883C145.671 34.4883 146.506 34.8174 147.213 35.4755C147.92 36.1337 148.274 36.94 148.274 37.8834C148.274 40.4831 146.379 42.6441 142.588 44.3718C139.714 45.6882 137.294 46.3518 135.338 46.3518C134.586 47.9589 134.211 49.4014 134.211 50.6793C134.211 52.2041 134.774 52.9665 135.896 52.9665C138.642 52.9665 142.146 51.1126 146.395 47.4104C149.772 44.4486 152.247 41.6898 153.833 39.1339L154.336 39.5672L154.342 39.5727ZM145.157 36.7206C145.157 35.7717 144.721 35.2945 143.848 35.2945C141.847 35.2945 139.223 38.4976 135.973 44.9093C137.642 44.9093 139.621 43.8343 141.908 41.6843C144.074 39.6604 145.157 38.004 145.157 36.7206Z" fill="white"/>
<path d="M172.71 39.5727C169.836 43.9111 167.521 46.9771 165.775 48.7542C162.443 52.226 159.149 53.9647 155.9 53.9647C153.734 53.9647 152.629 52.4564 152.59 49.4343C152.59 48.4415 153.452 46.4999 155.182 43.604C156.911 40.708 157.773 39.0571 157.773 38.6402C157.773 38.3496 157.69 38.207 157.524 38.207C157.232 38.207 156.701 38.5251 155.933 39.1668C155.159 39.8085 154.38 40.1266 153.59 40.1266C152.59 40.1266 152.092 39.3423 152.092 37.7682C152.092 36.8193 152.457 35.7937 153.187 34.6967C153.916 33.5997 154.739 33.0513 155.657 33.0513C156.657 33.0513 157.154 33.5284 157.154 34.4773C157.154 35.6346 156.425 37.0606 154.966 38.7554C156.298 37.6365 157.591 36.6054 158.84 35.6565C159.84 34.8722 160.735 34.4773 161.525 34.4773C162.15 34.4773 162.669 34.7132 163.089 35.1903C163.504 35.6675 163.714 36.2324 163.714 36.8961C163.714 37.4336 163.277 38.4483 162.398 39.9347L157.464 48.3099C156.673 49.6317 156.276 50.4819 156.276 50.8548C156.276 51.9737 156.817 52.5277 157.9 52.5277C161.188 52.5277 165.963 48.0631 172.212 39.1284L172.71 39.5617V39.5727ZM156.215 34.5486C156.215 34.1756 156.027 33.9892 155.651 33.9892C155.027 33.9892 154.441 34.4554 153.899 35.3823C153.358 36.3147 153.087 37.11 153.087 37.7682C153.087 38.4702 153.314 38.8212 153.778 38.8212C155.403 36.7535 156.215 35.3274 156.215 34.5431V34.5486Z" fill="white"/>
<path d="M249.945 53.9592C249.945 56.4822 248.652 58.7145 246.072 60.6561C243.657 62.477 241.137 63.404 238.512 63.4478C234.302 63.4862 230.411 62.5812 226.825 60.7219C225.449 60.0199 223.554 58.7968 221.139 57.0636C220.222 57.6011 218.807 58.3854 216.889 59.422C209.888 63.1407 203.473 65.0055 197.643 65.0055C190.641 65.0055 184.789 62.9378 180.081 58.8022C175.163 54.5022 172.71 48.9187 172.71 42.0572C172.71 35.1958 174.721 29.9633 178.738 25.8662C182.756 21.7746 188.122 19.7287 194.83 19.7287C195.869 19.7287 197.079 19.9756 198.455 20.4747V21.2206C197.085 20.6831 195.88 20.4143 194.841 20.4143C188.442 20.4143 183.27 22.4272 179.319 26.4531C175.368 30.4789 173.395 35.673 173.395 42.0298C173.395 48.3867 175.788 54.1073 180.573 58.3196C185.193 62.3235 190.89 64.3254 197.67 64.3254C204.036 64.3254 211.651 61.7366 220.509 56.559L218.26 54.5844C217.094 54.7929 216.116 54.8916 215.32 54.8916C213.027 54.8916 211.883 54.2499 211.883 52.9719C211.883 52.1437 212.402 51.7324 213.447 51.7324C214.696 51.7324 216.364 52.1876 218.448 53.0981C218.824 53.0981 219.686 52.5002 221.039 51.2991C222.393 50.0979 223.156 49.2916 223.322 48.8803C224.322 46.5657 225.239 44.3937 226.074 42.3699C227.615 38.6073 228.383 35.7772 228.383 33.874C226.51 34.2469 223.968 34.4334 220.758 34.4334C219.299 36.7535 217.011 40.1376 213.883 44.5747C208.507 51.4581 203.174 54.9026 197.886 54.9026C195.095 54.9026 192.824 54.2608 191.072 52.9829C189.072 51.5788 188.072 49.5494 188.072 46.9058C188.072 42.9348 189.862 39.6494 193.448 37.0442C196.698 34.7296 200.428 33.5723 204.633 33.5723H220.194C221.233 31.2522 222.857 28.636 225.068 25.7346C230.317 18.7689 236.357 14.2878 243.187 12.2969C243.602 12.2969 243.812 12.626 243.812 13.2896C243.812 13.7449 243.104 14.6115 241.69 15.8949C239.982 17.469 238.628 19.1803 237.628 21.0396C236.004 24.1001 235.042 27.6981 234.755 31.8336C242.834 28.6525 246.879 23.6065 246.879 16.7011C246.879 11.8252 244.607 7.87615 240.065 4.85405C236.064 2.21039 231.483 0.883073 226.317 0.883073C220.398 0.883073 215.32 2.66014 211.071 6.21975C207.114 9.52707 205.136 13.1031 205.136 16.948C205.136 22.5315 207.324 26.294 211.695 28.2356L211.507 29.0419C206.672 27.0564 204.257 23.0251 204.257 16.948C204.257 12.072 206.777 7.93649 211.817 4.54141C216.359 1.52479 221.189 0.0164795 226.311 0.0164795C231.727 0.0164795 236.517 1.42058 240.684 4.23427C245.392 7.42092 247.746 11.5729 247.746 16.7011C247.746 24.144 243.37 29.5629 234.622 32.9525C234.539 33.863 234.307 35.3219 233.937 37.3239C233.561 39.3313 232.312 41.8433 230.185 44.86C227.267 48.9955 223.791 52.1382 219.752 54.2883L221.625 56.0269C228.914 51.6062 233.329 49.0393 234.871 48.3373C236.993 47.3446 239.225 46.8509 241.557 46.8509C243.723 46.8509 245.619 47.4926 247.243 48.7706C249.034 50.1363 249.929 51.8695 249.929 53.9811L249.945 53.9592ZM219.453 34.5486H206.893C203.058 34.5486 199.56 35.6291 196.394 37.7846C192.807 40.1924 191.017 43.22 191.017 46.8674C191.017 51.6391 193.31 54.025 197.891 54.025C202.097 54.025 206.473 51.4746 211.015 46.3738C212.679 44.5089 215.491 40.5654 219.453 34.5541V34.5486ZM216.641 53.6959C215.348 53.0432 214.392 52.7196 213.767 52.7196C213.392 52.7196 213.204 52.8513 213.204 53.109C213.204 53.7179 213.662 54.0195 214.58 54.0195C215.121 54.0195 215.806 53.9098 216.641 53.6959ZM239.137 14.8254C238.137 14.8254 236.18 16.0704 233.263 18.5605C230.931 20.5076 229.14 22.2133 227.892 23.6613C224.681 27.2703 222.537 30.5666 221.454 33.5558C224.117 33.5558 226.455 33.3694 228.455 32.9964C229.207 28.4331 231.975 23.3926 236.766 17.8749C238.181 16.2569 238.993 15.2641 239.203 14.8857C239.203 14.8473 239.181 14.8254 239.142 14.8254H239.137ZM249.072 54.025C249.072 52.2479 248.365 50.7506 246.95 49.5275C245.536 48.3099 243.762 47.6956 241.64 47.6956C239.347 47.6956 237.059 48.2331 234.766 49.3081C233.268 50.0102 229.102 52.4289 222.266 56.5644C227.096 60.5738 232.511 62.5812 238.512 62.5812C240.927 62.5812 243.237 61.775 245.447 60.1625C247.862 58.3854 249.072 56.3396 249.072 54.025Z" fill="#9DEDF0"/>
<path d="M259.257 39.5727C256.383 43.9111 254.068 46.9771 252.322 48.7542C248.989 52.226 245.696 53.9647 242.447 53.9647C240.281 53.9647 239.175 52.4564 239.137 49.4343C239.137 48.4415 239.999 46.4999 241.728 43.604C243.458 40.708 244.32 39.0571 244.32 38.6402C244.32 38.3496 244.237 38.207 244.071 38.207C243.779 38.207 243.248 38.5251 242.48 39.1668C241.706 39.8085 240.927 40.1266 240.137 40.1266C239.137 40.1266 238.639 39.3423 238.639 37.7682C238.639 36.8193 239.004 35.7937 239.734 34.6967C240.463 33.5997 241.286 33.0513 242.204 33.0513C243.204 33.0513 243.701 33.5284 243.701 34.4773C243.701 35.6346 242.972 37.0606 241.513 38.7554C242.845 37.6365 244.138 36.6054 245.387 35.6565C246.387 34.8722 247.282 34.4773 248.072 34.4773C248.697 34.4773 249.216 34.7132 249.636 35.1903C250.05 35.6675 250.26 36.2324 250.26 36.8961C250.26 37.4336 249.824 38.4483 248.951 39.9347L244.016 48.3099C243.226 49.6317 242.828 50.4819 242.828 50.8548C242.828 51.9737 243.37 52.5277 244.453 52.5277C247.741 52.5277 252.515 48.0631 258.765 39.1284L259.262 39.5617L259.257 39.5727ZM242.762 34.5486C242.762 34.1756 242.574 33.9892 242.198 33.9892C241.574 33.9892 240.988 34.4554 240.446 35.3823C239.905 36.3147 239.634 37.11 239.634 37.7682C239.634 38.4702 239.861 38.8212 240.319 38.8212C241.944 36.7535 242.756 35.3274 242.756 34.5431L242.762 34.5486Z" fill="#9DEDF0"/>
<path d="M274 39.5727C273.375 40.527 271.419 43.1323 268.126 47.3885C264.711 51.7708 261.064 53.9647 257.19 53.9647C256.273 53.9647 255.494 53.5698 254.847 52.7855C254.2 52.0012 253.88 51.0468 253.88 49.9334C253.88 48.82 254.316 47.4323 255.19 45.6553L260.063 35.7937H255.505L256.505 34.8009H261.506C263.545 33.5285 265.401 31.8995 267.065 29.9304C268.104 28.6964 269.54 26.6835 271.375 23.8862H272.06L265.75 34.8009H270.436L270.06 35.7937H265.374L258.875 47.0813C257.958 48.6554 257.499 49.7469 257.499 50.3667C257.499 50.8603 257.676 51.3814 258.03 51.9189C258.384 52.4564 258.748 52.7251 259.124 52.7251C260.334 52.7251 261.876 52.0012 263.749 50.5532C265.247 49.3959 266.501 48.1783 267.501 46.8948C268.667 45.4469 270.668 42.8635 273.502 39.1394L274 39.5727Z" fill="#9DEDF0"/>
<path d="M289.5 39.5726C286.875 44.0153 284.377 47.0264 282.001 48.6005C280.415 49.681 278.398 50.405 275.939 50.778C274.022 53.0212 271.712 54.1401 269.004 54.1401C265.716 54.1401 264.07 52.6812 264.07 49.7633C264.07 48.7651 264.352 47.9314 264.915 47.2622C265.479 46.5986 266.197 46.264 267.07 46.264C267.739 46.264 268.507 46.637 269.38 47.3829C270.463 48.3318 271.171 48.8693 271.502 48.9954C272.171 48.5018 272.723 47.6955 273.16 46.5766C273.596 45.4577 273.817 44.4485 273.817 43.5381C273.817 43.0006 273.619 42.0572 273.226 40.7189C272.828 39.3751 272.635 38.3111 272.635 37.5268C272.635 36.2049 272.861 34.9654 273.32 33.8026C273.945 32.3162 274.818 31.5703 275.945 31.5703C276.984 31.5703 277.509 31.9433 277.509 32.6892C277.509 33.5997 276.862 35.1903 275.575 37.4664C276.824 40.3185 277.448 42.5728 277.448 44.2292C277.448 46.7905 277.072 48.6773 276.321 49.873C278.818 49.3355 280.78 48.5292 282.195 47.4542C284.278 45.8856 286.549 43.1103 289.008 39.1448L289.506 39.5836L289.5 39.5726ZM270.878 49.6207C270.585 49.4945 270.005 49.0612 269.126 48.3208C268.336 47.701 267.794 47.3884 267.501 47.3884C266.75 47.3884 266.374 47.7997 266.374 48.6279C266.374 49.5384 267.043 50.1143 268.374 50.3666C269.75 50.3666 270.585 50.1198 270.872 49.6207H270.878ZM276.752 32.8154C276.752 32.3601 276.503 32.1352 276 32.1352C275.752 32.1352 275.492 32.415 275.221 32.9744C274.95 33.5339 274.818 34.1207 274.818 34.7405C274.818 35.6071 274.945 36.2708 275.193 36.726C276.232 35.278 276.757 33.9781 276.757 32.8208L276.752 32.8154Z" fill="#9DEDF0"/>
<path d="M64.6346 18.1831L63.368 20.3198L65.5208 21.577L66.7874 19.4402L64.6346 18.1831Z" fill="white"/>
<path d="M77.6577 13.9518L75.9658 15.6311L77.6577 17.3104L79.3496 15.6311L77.6577 13.9518Z" fill="white"/>
<path d="M81.4359 19.8099L79.3074 20.8706L80.376 22.9832L82.5045 21.9225L81.4359 19.8099Z" fill="white"/>
<path d="M130.033 12.4723C125.48 13.8216 118.616 12.8398 106.968 9.62024C95.065 6.32938 91.219 10.3497 91.219 10.3497C97.9772 6.75719 113.4 11.8141 124.557 14.1891C127.137 14.7375 130.033 12.4723 130.033 12.4723Z" fill="white"/>
<path d="M115.804 13.6297C111.179 13.8326 106.686 18.9773 102.403 21.6484C92.8713 27.0289 88.9478 21.4948 88.9478 21.4948C97.2367 25.1751 107.089 17.1673 109.725 15.5438C113.549 13.1909 115.804 13.6242 115.804 13.6242V13.6297Z" fill="white"/>
<path d="M137.598 8.65497C140.256 8.21619 143.373 5.39153 146.346 5.08987C146.346 5.08987 142.08 4.23424 134.835 4.44815C124.391 4.7553 121.009 6.9163 121.009 6.9163C133.564 6.25812 134.94 9.09375 137.598 8.65497Z" fill="#9DEDF0"/>
<path d="M137.394 10.2017C141.466 8.24907 144.842 6.16486 148.777 5.04597C151.999 4.13001 156.331 4.40425 157.182 7.96935C157.259 8.28747 156.419 6.23068 153.656 8.51783C153.656 8.51783 149.788 12.8289 140.809 13.7613C137.41 14.1178 133.934 14.3427 127.961 14.6882L137.388 10.1962L137.394 10.2017ZM147.71 6.75721C147.71 6.75721 143.958 6.65849 140.002 11.9623C144.439 7.20148 149.965 7.47572 149.877 7.13018C148.965 6.77367 147.705 6.75721 147.705 6.75721H147.71Z" fill="white"/>
<path d="M70.5576 19.8988L70.6681 16.4982L73.8621 17.7323L70.5576 19.8988ZM69.6127 18.4728L72.8067 19.7068L72.9172 16.3063L69.6127 18.4728Z" fill="white" stroke="#9DEDF0"/>
<path d="M88.4671 17.9023L85.041 17.7926L86.2844 14.6224L88.4671 17.9023ZM87.0304 18.8402L88.2737 15.67L84.8476 15.5603L87.0304 18.8402Z" fill="white" stroke="#9DEDF0"/>
</g>
<defs>
<clipPath id="clip0_158_5708">
<rect width="289" height="65" fill="white" transform="translate(0.5)"/>
</clipPath>
</defs>
</svg>
