<?xml version="1.0" encoding="UTF-8"?><svg id="Layer_1" xmlns="http://www.w3.org/2000/svg" xmlns:xlink="http://www.w3.org/1999/xlink" viewBox="0 0 166.99 143.51"><defs><style>.cls-1,.cls-2{fill:#4f256c;}.cls-3{fill:none;font-size:83.15px;}.cls-3,.cls-2{font-family:Verdana-Bold, Verdana;font-weight:700;}.cls-4{fill:#fbb040;}.cls-5{clip-path:url(#clippath);}.cls-2{font-size:99.12px;}</style><clipPath id="clippath"><text class="cls-3" transform="translate(46.1 108.31) scale(1.85 1)"><tspan x="0" y="0">S</tspan></text></clipPath></defs><g class="cls-5"><text class="cls-2" transform="translate(52.68 116.23) scale(1.21 1)"><tspan x="0" y="0">A</tspan></text></g><path class="cls-4" d="m92.3,43.97c-13.9-1.05-29.42,10.23-43.31,15.43-30.67,10.16-40.12-4.91-40.12-4.91,23.23,11.94,55.96-4.65,64.49-7.8,12.38-4.57,18.94-2.73,18.94-2.73Z"/><path class="cls-4" d="m101.3,31.86c4.2-.72,11.42-4.7,13.68-5.18s-6.84-.9-18.34-.24c-16.59.96-21.82,4-21.82,4,19.92-1.54,22.29,2.14,26.49,1.42Z"/><path class="cls-1" d="m99.8,35.08c6.35-2.8,11.58-5.74,17.77-7.43,5.07-1.38,11.97-1.25,13.55,3.43.14.42-1.32-2.26-5.57.91,0,0-5.88,5.91-20.09,7.62-5.38.65-10.89,1.14-20.37,1.91l14.7-6.44Zm16.18-5.1s-5.97.07-11.92,7.3c6.74-6.54,15.55-6.47,15.39-6.92-1.47-.42-3.47-.38-3.47-.38Z"/></svg>